<svg width="205" height="101" viewBox="0 0 205 101" fill="none" xmlns="http://www.w3.org/2000/svg">
<g clip-path="url(#clip0_783_5691)">
<path d="M185.408 7.39098C187.32 10.248 189.155 13.7724 188.252 17.5494C185.138 15.767 182.634 12.857 180.648 9.98424C178.648 7.09215 176.571 4.0168 175.859 0.452148C179.787 1.4568 183.304 4.24564 185.408 7.39098Z" fill="#073141"/>
<path d="M16.583 17.5432C15.683 13.7656 17.5216 10.2425 19.4367 7.38719C21.5449 4.24371 25.0623 1.45743 28.9907 0.455566C28.2769 4.01952 26.1969 7.09371 24.1949 9.98394C22.2062 12.8553 19.6981 15.7635 16.583 17.5432Z" fill="#073141"/>
<path d="M13.845 24.79C14.5476 21.7984 14.532 18.5233 13.8631 15.7172C13.275 13.2512 12.4192 9.76515 9.60244 8.58887C7.55499 11.8731 6.73197 16.3454 7.92523 19.6965C8.78802 22.1205 10.3396 25.3254 13.5576 25.8214C16.5103 26.5021 19.4962 24.927 21.8543 23.6265C24.4764 22.1807 27.0448 19.8805 28.6052 17.1458C25.7427 15.701 22.4827 16.8735 20.0301 17.9972C17.3864 19.2086 14.9578 21.8077 13.845 24.79Z" fill="#073141"/>
<path d="M128.395 46.5024C128.395 43.0691 126.214 41.2647 121.126 40.7133C120.299 40.6131 117.868 40.3624 116.339 40.237C112.405 39.811 111.227 39.5856 111.227 38.5831C111.227 37.681 112.154 37.2549 115.688 37.2549C118.194 37.2549 119.598 37.731 120.149 38.4577C120.425 38.8087 120.525 39.0843 120.55 39.3601H127.768C127.692 38.7584 127.442 37.9063 127.041 37.1547C125.738 34.6484 122.605 32.6436 115.863 32.6436C108.27 32.6436 104.11 35.3252 104.11 38.8338C104.11 42.217 106.465 44.1968 112.831 44.7733C113.551 44.835 115.096 44.981 116.362 45.1005L116.44 45.108L116.454 45.1094L116.46 45.1098L117.142 45.1742C120.475 45.5252 121.377 45.7505 121.377 46.8033C121.377 47.7805 120.5 48.3068 116.816 48.3068C113.959 48.3068 112.28 47.8808 111.678 47.154C111.428 46.8533 111.252 46.4022 111.202 46.1015H103.984C104.059 46.6026 104.185 47.4047 104.46 48.0563C105.689 50.8131 108.896 52.9182 116.339 52.9182C124.334 52.9182 128.395 50.6626 128.395 46.5024Z" fill="#073141"/>
<path fill-rule="evenodd" clip-rule="evenodd" d="M77.2276 50.6127C77.9795 49.7355 78.3553 48.4071 78.3553 47.0539C78.3553 45.9011 78.0546 44.7983 77.4281 44.0716C76.6762 43.0941 75.3478 42.3925 73.9446 42.2171C74.8969 42.0918 75.799 41.5906 76.3253 40.939C76.9769 40.162 77.2776 39.1095 77.2776 37.8313C77.2776 36.5532 76.9018 35.4255 76.0497 34.5734C75.0974 33.596 73.3681 32.9443 70.6615 32.9443H53.6699V52.6176H71.1376C73.9195 52.6176 76.0748 52.016 77.2276 50.6127ZM70.3106 39.0092C70.3106 39.4855 70.1602 39.8864 69.9097 40.162C69.5588 40.4878 68.9071 40.6132 68.055 40.6132H60.236V37.4053H67.8797C68.832 37.4053 69.4836 37.5306 69.8343 37.8564C70.1602 38.132 70.3106 38.5329 70.3106 39.0092ZM71.0625 47.6304C70.6615 48.0062 69.9597 48.1567 68.7818 48.1567H60.236V44.8736H68.8571C69.9597 44.8736 70.6113 45.0239 70.9871 45.3497C71.2881 45.6504 71.4132 46.0264 71.4132 46.5276C71.4132 47.0039 71.3129 47.3797 71.0625 47.6304Z" fill="#073141"/>
<path d="M101.954 47.7306V52.6176H81.2285V32.9443H101.779V37.8564H87.8446V40.3876H101.378V45.1743H87.8446V47.7306H101.954Z" fill="#073141"/>
<path d="M152.778 37.8815V32.9443H129.297V37.8815H137.592V52.6176H144.457V37.8815H152.778Z" fill="#073141"/>
<path d="M128.865 70.0263H127.76L127.681 68.9626C127.344 69.501 126.63 70.1473 125.123 70.1473C122.576 70.1473 121.393 68.6124 121.393 64.6935C121.393 61.6638 122.146 59.2266 125.255 59.2266C127.951 59.2266 128.772 60.9908 128.811 62.8894H127.465C127.425 61.6505 126.872 60.5059 125.283 60.5059C123.372 60.5059 122.818 61.6505 122.818 64.7342C122.818 67.9526 123.507 68.9626 125.311 68.9626C126.576 68.9626 127.316 68.2624 127.56 67.4275V65.421H124.839V64.1954H128.851V67.2928C128.851 68.2182 128.86 69.2059 128.862 69.7024L128.865 69.9387V70.0263Z" fill="#073141"/>
<path d="M86.7287 59.3608H88.0215L85.5034 70.0257H83.9008C83.9008 70.0257 82.1099 61.7308 82.1099 61.3806C82.0964 61.7308 80.265 70.0257 80.265 70.0257H78.6627L76.1445 59.3608H77.5987C77.5987 59.3608 79.5513 67.8039 79.5513 68.1406C79.5513 67.8039 81.3422 59.3608 81.3422 59.3608H82.9448C82.9448 59.3608 84.7357 67.8174 84.7357 68.1406C84.7357 67.8174 86.7287 59.3608 86.7287 59.3608Z" fill="#073141"/>
<path d="M90.4044 59.3608V70.0257H89.0039V59.3608H90.4044Z" fill="#073141"/>
<path d="M99.1692 59.3608V70.0257H97.6206L93.6481 61.7576V70.0257H92.3418V59.3608H93.9713L97.8495 67.5076V59.3608H99.1692Z" fill="#073141"/>
<path d="M107.899 59.3608V70.0257H106.35L102.379 61.7576V70.0257H101.072V59.3608H102.702L106.581 67.5076V59.3608H107.899Z" fill="#073141"/>
<path d="M111.207 59.3608V70.0257H109.807V59.3608H111.207Z" fill="#073141"/>
<path d="M119.972 59.3608V70.0257H118.424L114.452 61.7576V70.0257H113.145V59.3608H114.775L118.654 67.5076V59.3608H119.972Z" fill="#073141"/>
<path d="M69.0856 91.0459L67.5426 86.2966L65.9994 91.0459H61.0059L65.0456 93.9813L63.5026 98.7306L67.5426 95.7952L71.5826 98.7306L70.0393 93.9813L74.0793 91.0459H69.0856Z" fill="#073141"/>
<path d="M86.9285 91.0467L85.3538 86.2974L83.7792 91.0467H78.6836L82.8061 93.9818L81.2315 98.7311L85.3538 95.796L89.4764 98.7311L87.9017 93.9818L92.0241 91.0467H86.9285Z" fill="#073141"/>
<path d="M104.602 91.0469L103.028 86.2976L101.453 91.0469H96.3574L100.48 93.982L98.9051 98.7313L103.028 95.7962L107.15 98.7313L105.575 93.982L109.698 91.0469H104.602Z" fill="#073141"/>
<path d="M122.276 91.0469L120.701 86.2976L119.127 91.0469H114.031L118.154 93.982L116.579 98.7313L120.701 95.7962L124.824 98.7313L123.249 93.982L127.372 91.0469H122.276Z" fill="#073141"/>
<path d="M140.061 91.0472L138.52 86.2979L136.975 91.0472H131.982L136.022 93.9823L134.48 98.7316L138.52 95.7965L142.559 98.7316L141.015 93.9823L145.057 91.0472H140.061Z" fill="#073141"/>
<path d="M4.75009 32.8628C6.20218 35.0781 8.44916 37.853 11.7254 37.774C14.7047 37.9228 17.2787 35.8895 19.3057 34.1926C21.4887 32.3649 23.4592 29.6921 24.291 26.8026C21.2438 25.916 18.3264 27.5584 16.1508 29.1074C13.8789 30.7253 12.1317 33.6863 11.7564 36.7265C11.7282 33.6807 10.9038 30.5349 9.57474 28.0007C8.35963 25.6839 6.66637 22.5523 3.64544 21.9263C2.45521 25.5312 2.83497 29.9419 4.75009 32.8628Z" fill="#073141"/>
<path d="M12.6947 49.7054C9.65405 50.2149 6.68801 48.3519 4.76173 46.1605C2.28173 43.3391 0.806143 39.5542 1.10707 35.7651C4.23079 35.8444 6.59661 38.5447 8.34521 40.5865C10.2285 42.7856 11.7715 45.6789 12.5117 48.6635C12.1861 45.6891 13.1848 42.4772 15.0385 40.4926C16.8278 38.5768 19.3343 36.4889 22.4529 36.824C22.3857 39.84 20.8738 42.7135 19.3145 44.8656C17.861 46.8712 15.622 49.3519 12.6947 49.7054Z" fill="#073141"/>
<path d="M7.07775 59.7274C9.87822 61.5507 13.2747 63.3553 16.8443 61.9895C19.7726 60.9535 21.6345 58.0058 22.7796 55.3002C23.9926 52.4335 24.8029 49.1279 24.2419 45.9902C21.024 46.2758 18.3557 48.5781 16.9385 51.3886C15.4568 54.3267 15.1726 57.824 16.3108 60.9044C14.6291 57.7354 12.1698 55.1712 9.56473 52.8019C7.19659 50.6481 3.78542 48.3793 0.349609 48.806C1.00333 53.0537 3.59543 57.4605 7.07775 59.7274Z" fill="#073141"/>
<path d="M24.061 73.4728C26.8168 71.8253 27.9259 68.3588 28.3791 65.3884C28.8677 62.1849 28.8468 58.6519 27.5163 55.6128C24.3191 56.5058 22.1245 59.3835 21.3998 62.5354C20.6342 65.8654 21.2803 69.4144 23.1426 72.2498C20.667 69.4095 17.3752 67.0644 14.2205 65.42C11.1733 63.8316 7.43493 61.9158 3.77539 63.0728C5.54004 67.3795 9.31493 71.3893 13.4986 73.0479C16.7386 74.3321 20.6803 75.6021 24.061 73.4728Z" fill="#073141"/>
<path d="M37.1205 74.5874C37.5249 77.6795 37.5135 81.6014 35.1128 83.9814C32.1128 87.0521 27.47 86.4595 23.8891 85.784C19.0816 84.8763 13.67 81.5974 10.7695 77.2316C14.3119 75.2812 18.6442 76.5288 22.1512 77.5388L22.3514 77.5963C26.266 78.7226 30.4377 80.5365 33.9265 83.0151C31.1423 80.4993 29.1137 76.8067 29.0144 73.0849C28.9251 69.756 30.37 66.1947 33.4793 64.6079C35.65 67.457 36.6665 71.1149 37.1205 74.5874Z" fill="#073141"/>
<path d="M51.0586 92.7367C52.8265 89.3713 51.0749 85.4215 49.6791 82.5022C48.0288 79.0511 45.7742 75.5339 42.5474 73.0078C39.4491 75.678 39.7437 79.4987 40.6649 82.8192C41.7602 86.7673 45.5577 90.1329 49.49 92.0508C44.9358 90.3525 39.9621 89.3332 35.23 89.0322L34.7507 89.0013C30.9491 88.7536 26 88.4313 22.9707 91.2134C27.5509 95.1071 34.0567 97.3536 39.7907 97.2369C43.6333 97.1587 48.9053 96.7041 51.0586 92.7367Z" fill="#073141"/>
<path d="M190.99 24.8007C189.881 21.8163 187.453 19.214 184.811 18.0003C182.357 16.8747 179.099 15.7001 176.236 17.1424C177.794 19.8782 180.36 22.1803 182.981 23.6282C185.336 24.93 188.32 26.5073 191.274 25.8294C194.492 25.3363 196.048 22.1321 196.913 19.7082C198.111 16.3587 197.292 11.8854 195.248 8.59912C192.429 9.77377 191.569 13.2589 190.981 15.7247C190.308 18.5314 190.29 21.8077 190.99 24.8007Z" fill="#073141"/>
<path d="M188.674 29.1132C190.944 30.7318 192.686 33.6911 193.06 36.7293C193.093 33.6851 193.921 30.5423 195.251 28.0107C196.467 25.6946 198.165 22.5644 201.186 21.9404C202.372 25.5465 201.988 29.9569 200.07 32.8762C198.618 35.0876 196.372 37.8567 193.102 37.7825C190.119 37.9348 187.542 35.8967 185.514 34.1962C183.332 32.3667 181.365 29.6925 180.537 26.8025C183.584 25.9179 186.5 27.5625 188.674 29.1132Z" fill="#073141"/>
<path d="M192.291 48.6832C192.624 45.7062 191.628 42.4876 189.773 40.499C187.987 38.5818 185.482 36.492 182.363 36.8248C182.426 39.8408 183.935 42.7157 185.494 44.869C186.945 46.8748 189.18 49.3555 192.105 49.7129C195.147 50.228 198.117 48.3659 200.047 46.1748C202.528 43.3555 204.007 39.5718 203.712 35.7822C200.587 35.8594 198.219 38.5576 196.468 40.598C194.58 42.7985 193.033 45.695 192.291 48.6832Z" fill="#073141"/>
<path d="M187.865 51.3942C189.344 54.334 189.625 57.8319 188.483 60.9114C190.167 57.7428 192.63 55.1802 195.237 52.8126C197.606 50.6605 201.02 48.3947 204.455 48.8237C203.799 53.0712 201.202 57.4761 197.718 59.7402C194.918 61.5588 191.525 63.3598 187.96 61.9995C185.027 60.9654 183.165 58.0116 182.02 55.3014C180.809 52.4337 180.002 49.1277 180.567 45.9902C183.783 46.2784 186.451 48.5828 187.865 51.3942Z" fill="#073141"/>
<path d="M181.65 72.2441C183.51 69.4115 184.159 65.8659 183.399 62.5376C182.678 59.385 180.485 56.5057 177.287 55.6104C175.955 58.648 175.931 62.1808 176.415 65.385C176.866 68.3496 177.969 71.8092 180.708 73.4627C184.092 75.6087 188.043 74.3394 191.287 73.0557C195.473 71.4001 199.252 67.3931 201.02 63.0873C197.362 61.928 193.622 63.841 190.573 65.4271C187.42 67.0683 184.127 69.4085 181.65 72.2441Z" fill="#073141"/>
<path d="M167.656 74.5783C167.249 77.6697 167.256 81.5913 169.656 83.9734C172.652 87.0464 177.296 86.4571 180.877 85.7839C185.687 84.8799 191.101 81.6046 194.005 77.2413C190.466 75.2885 186.131 76.5325 182.624 77.5397L182.422 77.5974C178.508 78.7201 174.336 80.5304 170.845 83.0053C173.631 80.4915 175.661 76.802 175.763 73.0815C175.856 69.7529 174.415 66.1904 171.308 64.6011C169.133 67.4485 168.115 71.106 167.656 74.5783Z" fill="#073141"/>
<path d="M164.973 97.2253C161.131 97.1442 155.859 96.6858 153.71 92.7165L153.68 92.6621C151.964 89.3069 153.708 85.3856 155.099 82.4835C156.752 79.0335 159.01 75.5179 162.238 72.9946C165.336 75.667 165.036 79.4874 164.113 82.8069C163.013 86.7544 159.213 90.1177 155.278 92.0323C159.834 90.3374 164.808 89.3218 169.541 89.0242L170.022 88.9935C173.824 88.7488 178.773 88.4307 181.799 91.2144C177.215 95.1042 170.708 97.3463 164.973 97.2253Z" fill="#073141"/>
<path d="M67.3168 7.2041V18.4537C67.3168 23.4016 62.8357 25.7822 56.044 25.7822C49.6957 25.7822 45.1445 23.4251 45.1445 17.8703V7.2041H51.4695V17.8703C51.4695 19.8541 53.1732 21.091 56.3007 21.091C59.2882 21.091 61.062 19.8074 61.062 17.8935V7.2041H67.3168Z" fill="#073141"/>
<path d="M88.3854 20.6476V25.5254H70.9043V7.2041H77.2293V20.6476H88.3854Z" fill="#073141"/>
<path d="M107.182 11.802V7.2041H85.3125V11.802H93.0379V25.5254H99.4329V11.802H107.182Z" fill="#073141"/>
<path fill-rule="evenodd" clip-rule="evenodd" d="M129.616 9.07141C130.457 9.93487 130.855 11.1253 130.855 12.7822C130.855 14.206 130.505 15.4197 129.92 16.2364C129.266 17.1233 128.262 17.8703 127.026 18.057L132.559 25.5254H125.603L121.051 19.0604H115.38V25.5254H109.148V7.2041H123.736C126.63 7.2041 128.52 7.90429 129.616 9.07141ZM124.576 14.3228C124.739 14.0426 124.786 13.6691 124.786 13.3658C124.786 13.0156 124.739 12.6422 124.576 12.4089C124.249 11.802 123.595 11.6387 122.614 11.6387H115.403V14.9762H122.732C123.736 14.9762 124.343 14.7895 124.576 14.3228Z" fill="#073141"/>
<path fill-rule="evenodd" clip-rule="evenodd" d="M140.98 22.1414H150.876L152.485 25.5254H159.231L149.989 7.2041H142.451L132.672 25.5254H139.276L140.98 22.1414ZM148.891 18.0335H143.033L145.345 13.6226L146.045 11.942L146.699 13.5991L148.891 18.0335Z" fill="#073141"/>
</g>
<defs>
<clipPath id="clip0_783_5691">
<rect width="204.651" height="100" fill="white" transform="translate(0.349609 0.452148)"/>
</clipPath>
</defs>
</svg>
